<svg xmlns="http://www.w3.org/2000/svg" viewBox="0 0 32 32" role="img" aria-label="Capisum">
  <path fill="#14532D" d="M9.68,3.68a14,14,0,0,1,9.08-1.52,15.55,15.55,0,0,1,5.54,2.2A2,2,0,0,1,25,7.21a2,2,0,0,1-2.87.5A10.41,10.41,0,0,0,15,6.15,10.79,10.79,0,0,0,6.53,14a9.63,9.63,0,0,0,4.39,10.51A10.27,10.27,0,0,0,25.83,19a9.34,9.34,0,0,0,.53-4.53A1.91,1.91,0,0,1,28,12.2,2.08,2.08,0,0,1,30.31,14a13.1,13.1,0,0,1-.12,4.76,16.37,16.37,0,0,1-3.55,6.77A13.9,13.9,0,0,1,15.23,30,13.75,13.75,0,0,1,2.5,18.6c-.9-5.51,1-9.91,5-13.52A15.48,15.48,0,0,1,9.68,3.68Z" transform="translate(0 1)"/>
  <path fill="#14532D" d="M15.83,17.5c-1-1.61-2-3.14-2.87-4.69a1.66,1.66,0,0,1,.34-2.36,2,2,0,0,1,2.52-.13,3,3,0,0,1,.49.62c1.52,2.47,3,4.93,4.55,7.41a2,2,0,0,1-1.75,3.13,2,2,0,0,1-1.51-1.12C17,19.45,16.45,18.51,15.83,17.5Z" transform="translate(0 1)"/>
  <path fill="#14532D" d="M11.41,21.19c-.65-1.05-1.27-2-1.85-3A1.83,1.83,0,0,1,10,15.59a1.87,1.87,0,0,1,2.59.47,18.19,18.19,0,0,1,2,3.31,1.9,1.9,0,0,1-.72,2.55A1.87,1.87,0,0,1,11.41,21.19Z" transform="translate(0 1)"/>
  <path fill="#14532D" d="M20.21,13.76c-.34-.55-.65-1-.93-1.51a2,2,0,0,1,.47-2.64,1.81,1.81,0,0,1,2.53.44,16.68,16.68,0,0,1,2.15,3.46,1.83,1.83,0,0,1-.7,2.41,2,2,0,0,1-2.58-.65C20.82,14.81,20.55,14.31,20.21,13.76Z" transform="translate(0 1)"/>
</svg>
